<?xml version="1.0" encoding="utf-8"?>
<!-- Generator: Adobe Illustrator 16.0.0, SVG Export Plug-In . SVG Version: 6.00 Build 0)  -->
<!DOCTYPE svg PUBLIC "-//W3C//DTD SVG 1.1//EN" "http://www.w3.org/Graphics/SVG/1.1/DTD/svg11.dtd">
<svg version="1.1" id="Layer_1" xmlns="http://www.w3.org/2000/svg" xmlns:xlink="http://www.w3.org/1999/xlink" x="0px" y="0px"
	 width="934px" height="282.583px" viewBox="55.5 361.264 934 282.583" enable-background="new 55.5 361.264 934 282.583"
	 xml:space="preserve">
<g fill="#fd5559" transform="translate(0.000000,1024.000000) scale(0.100000,-0.100000)">
	<path d="M8835.997,6615.002c-195.996-50-390.995-210-482.001-394.004c-98.994-202.002-60-407.998,107.002-565
		c80-75.996,137.001-115,340.995-237.998c346.006-206.006,516.006-341.006,549.004-437.002
		c19.004-54.004-32.998-125.996-125.996-174.004c-63.008-31.992-220-77.998-333.008-96.992
		c-65-11.006-211.992-26.006-326.991-34.004c-277.002-17.002-331.006-39.004-343.008-140.996c-5-46.006-3.994-47.002,54.004-104.004
		c32.998-30.996,85-70,117.002-85c55.996-27.998,60-27.998,170-22.002c368.993,22.998,628.993,81.006,838.993,187.998
		C9552.999,4588.996,9620.001,4658,9665.001,4783c66.992,182.002,27.998,340.996-120,492.002
		c-99.004,101.992-194.004,167.998-497.002,348.994c-360,214.004-427.998,277.002-427.998,397.998
		c0,51.006,0.996,54.004,62.998,113.008c103.994,100.996,255.996,166.992,388.994,166.992c77.002,1.006,120-13.994,137.002-45
		c6.006-11.992,17.998-55,26.006-95.996c8.994-40.996,20.996-80.996,26.992-87.998c41.006-50,149.004-56.006,194.004-12.002
		c54.004,54.004,50.996,182.998-7.002,304.004c-55,116.992-135,183.994-277.002,230.996
		C9075.001,6628.996,8925.001,6636.994,8835.997,6615.002z"/>
	<path d="M2020.002,6555.002c-347.002-70-690-340-850-670c-46.006-95-80-198.008-80-244.004c0-12.002-4.004-20.996-10-20.996
		c-5,0-10,3.994-10,8.994s-12.998,90-29.004,187.998c-17.002,98.008-38.994,255-50.996,348.008
		c-11.006,93.994-27.002,185-36.006,202.998c-26.992,60.996-170,100.996-246.992,68.994
		c-56.006-23.994-61.006-47.998-42.002-201.992C718,5811.994,788,5396.994,858.997,5075.002c63.008-280,127.002-390,234.004-402.002
		c65.996-7.998,100,15,137.002,90.996c27.998,57.002,32.998,82.002,45.996,217.998c35,378.008,77.002,548.008,186.006,748.008
		c63.994,116.992,120,190,221.992,287.998c104.004,98.994,212.002,175,396.006,277.998c135,75.996,170,110,177.002,177.002
		c5.996,50-10,68.994-72.002,85.996C2135.002,6571.994,2103,6571.994,2020.002,6555.002z"/>
	<path d="M5261.994,6540.002c-11.992-5-30-22.002-38.994-38.008c-16.006-27.998-17.998-28.994-89.004-23.994
		c-83.994,5-137.998-9.004-248.994-65c-118.008-60-185-112.002-320-247.002c-197.002-197.002-309.004-359.004-361.006-520.996
		c-35-107.002-43.994-280-20-375c57.002-223.008,205-330,459.004-330c162.002,0,322.998,42.998,585.996,155
		c107.002,45.996,135,55,142.002,43.994c5-7.998,9.004-17.998,9.004-23.994c0-5,12.998-118.008,30-250
		c16.992-132.002,42.998-373.008,60-535c36.992-374.003,61.992-465,140-509.003c30.996-17.002,51.992-20.996,96.992-19.004
		c53.008,3.008,59.004,6.006,80,37.002c41.006,60,43.008,91.006,27.002,290c-30.996,397.002-87.998,912.998-165,1511.006
		c-70,538.994-103.994,743.994-130.996,783.994c-32.998,47.998-80,96.006-110,112.002S5296.994,6553.996,5261.994,6540.002z
		 M5235.002,6158c5-26.006,85-599.004,85-614.004c0-12.998-186.006-115-290-158.994C4863.996,5313.996,4581.994,5246.994,4518,5263
		c-32.002,7.998-57.998,52.002-57.998,95c0,85.996,93.994,292.998,191.992,423.994C4778,5948,4988.996,6108.996,5150.002,6160.998
		C5221.994,6183.996,5228.996,6183.996,5235.002,6158z"/>
	<path d="M2995.002,6415.002c-281.006-62.002-496.006-278.008-551.006-555c-31.992-160-1.992-387.002,73.008-567.002
		c82.998-197.998,240.996-345,437.998-410c105.996-34.004,275-42.998,388.994-19.004
		c202.002,42.002,379.004,162.998,493.008,337.998c35.996,56.006,42.998,74.004,42.998,118.008c0,63.994-30,100-84.004,100
		c-47.998,0-77.998-15-173.994-87.002c-152.002-116.006-299.004-174.004-438.008-174.004c-135.996-0.996-212.998,30-295.996,117.998
		c-50,54.004-80,113.008-97.002,192.002c-20,92.998-28.994,86.006,131.006,100c171.992,14.004,307.998,41.006,441.992,87.998
		c120,41.006,284.004,119.004,343.008,162.002c91.992,67.002,105.996,167.002,41.992,294.004
		c-75,152.002-218.994,260.996-398.994,302.002C3270.002,6433,3078,6433,2995.002,6415.002z M3367.004,6125.002
		c42.998-17.002,102.998-75,102.998-99.004c0-15.996-107.998-65.996-202.998-95c-103.008-30.996-311.006-70.996-409.004-77.998
		c-100.996-7.002-104.004-4.004-67.002,68.994c44.004,87.002,170,179.004,290,213.008
		C3152.004,6155.002,3308,6148.996,3367.004,6125.002z"/>
	<path d="M6430.998,6315.002c-17.002-20-30.996-37.002-30.996-38.008c0-1.992-16.006-70.996-35-153.994
		c-67.002-294.004-104.004-570-105-777.998c0-295,111.992-569.004,263.994-647.002c129.004-66.006,326.006-12.998,512.002,135.996
		c130,104.004,310,320,415.996,499.004c22.002,37.002,44.004,68.994,47.002,72.002c4.004,1.992,12.998-42.002,20-98.008
		c22.002-182.998,79.004-500,105-590c31.006-105,46.006-130,91.006-150.996c76.992-37.002,150-5.996,198.994,84.004
		c32.998,60.996,34.004,52.998-17.002,320c-61.992,321.992-123.994,761.992-146.992,1038.994
		c-12.002,152.998-26.006,189.004-91.006,245c-58.994,50-95,55-157.998,20c-65-35-77.002-55-85.996-140
		c-33.008-307.998-299.004-783.994-553.008-987.998c-80.996-65-117.998-84.004-173.994-92.002c-42.002-5.996-44.004-5-65,32.998
		c-34.004,60-44.004,126.006-44.004,278.008c0,166.992,17.998,310,72.002,582.998c44.004,225,44.004,233.994-10.996,310
		c-29.004,40.996-116.006,92.002-156.006,92.002C6470.998,6350.002,6448.996,6335.002,6430.998,6315.002z"/>
</g>
</svg>
